<svg version="1.1" id="Layer_1" xmlns="http://www.w3.org/2000/svg" xmlns:xlink="http://www.w3.org/1999/xlink" x="0px" y="0px"
	 width="100%" viewBox="0 0 181 182" enable-background="new 0 0 181 182" xml:space="preserve">
<path fill="#FCFDFB" opacity="1.000000" stroke="none" 
	d="
M182.000000,64.000000 
	C182.000000,104.000000 182.000000,143.500000 182.000000,183.000000 
	C121.666664,183.000000 61.333332,183.000000 1.000000,183.000000 
	C1.000000,122.333336 1.000000,61.666668 1.000000,1.000000 
	C61.333332,1.000000 121.666664,1.000000 182.000000,1.000000 
	C182.000000,21.833334 182.000000,42.666668 182.000000,64.000000 
M79.874573,54.849823 
	C78.777397,54.522232 77.680229,54.194641 76.583054,53.867050 
	C76.360901,54.277649 76.138756,54.688244 75.916603,55.098843 
	C76.821953,55.789383 77.727310,56.479923 79.689857,57.254734 
	C79.818321,56.660625 79.946793,56.066517 79.874573,54.849823 
M95.077644,139.166809 
	C97.406097,140.167084 99.734550,141.167374 102.063004,142.167648 
	C102.364021,141.599731 102.665039,141.031830 102.966057,140.463913 
	C100.768097,139.215591 98.570129,137.967255 96.288300,136.266388 
	C96.312477,135.954742 96.271385,135.651947 96.614807,135.096756 
	C96.404419,134.809753 96.194031,134.522751 95.063484,134.090271 
	C90.360268,134.091980 85.657051,134.093689 81.343651,133.491257 
	C91.704834,130.029434 102.028114,126.446793 112.449638,123.177284 
	C115.694748,122.159218 117.720833,121.095139 115.979416,117.113228 
	C109.610497,118.808731 104.481796,124.657860 96.853996,122.390472 
	C98.068176,121.044487 99.001564,120.009781 100.557510,118.696938 
	C104.955322,114.027092 109.353142,109.357254 112.871994,105.620735 
	C112.871994,103.126091 112.871994,101.547386 113.560074,99.893036 
	C118.221718,95.478600 122.883354,91.064156 127.415459,86.772385 
	C119.963631,87.593025 113.283150,92.879616 111.326874,99.109924 
	C110.560760,99.628883 109.794647,100.147850 108.613945,99.976555 
	C107.501175,97.512047 106.388412,95.047539 105.275650,92.583031 
	C104.927078,92.694435 104.578499,92.805840 104.229927,92.917236 
	C104.229927,96.281593 104.229927,99.645950 104.023315,103.764496 
	C103.777542,109.625580 99.612274,112.678223 94.675652,115.819832 
	C93.916199,115.984352 93.156746,116.148872 92.589905,115.417252 
	C92.652054,113.923241 92.714203,112.429222 93.243889,110.575150 
	C93.257668,110.024719 93.271446,109.474297 93.663895,108.249725 
	C93.719635,107.484001 93.775368,106.718285 94.291908,105.582016 
	C94.306290,105.030464 94.320679,104.478912 94.662086,103.313324 
	C94.703812,102.854584 94.745544,102.395844 95.299248,101.501259 
	C95.305298,100.643066 95.311348,99.784882 95.647987,98.331482 
	C95.717400,97.886528 95.786812,97.441582 96.360435,96.537460 
	C96.744301,95.003906 97.128166,93.470352 97.918373,91.332123 
	C100.961250,86.917336 104.004128,82.502548 107.657852,77.758072 
	C108.812286,76.434479 109.966721,75.110878 111.889893,72.905891 
	C109.026611,73.224495 107.557365,73.387985 104.692322,73.706787 
	C107.499542,67.781769 109.867462,62.783966 112.273849,57.704960 
	C110.729012,57.058708 109.407951,56.506077 108.076569,55.351074 
	C107.926056,55.075027 107.775543,54.798985 107.625038,54.522938 
	C107.487976,55.035664 107.350922,55.548389 107.050812,56.857937 
	C105.375870,62.572632 103.700928,68.287331 101.778328,74.544441 
	C101.380722,75.205391 100.983116,75.866348 100.049263,76.912025 
	C99.018120,77.633820 97.986977,78.355606 96.963036,78.303070 
	C96.667511,76.539680 96.371986,74.776299 96.429749,72.677711 
	C96.250458,72.127121 96.071175,71.576530 95.950401,70.194267 
	C95.720787,68.840553 95.491173,67.486832 95.573227,65.588844 
	C95.331535,65.070656 95.089836,64.552467 94.847343,63.380798 
	C94.747589,62.958820 94.647835,62.536842 94.792366,61.295258 
	C94.472046,59.210388 94.151726,57.125523 93.938293,54.230164 
	C93.909874,53.142345 93.881447,52.054531 94.388351,50.413769 
	C94.445473,48.573132 94.502594,46.732498 94.790138,44.279209 
	C94.825500,43.846409 94.860855,43.413605 95.439293,42.454266 
	C95.607574,40.716381 95.775856,38.978500 95.944130,37.240616 
	C95.459969,37.113976 94.975807,36.987335 94.491638,36.860695 
	C93.755753,38.275608 93.019867,39.690517 91.999252,41.819153 
	C91.258568,44.822983 90.598228,47.851036 89.706375,50.809292 
	C89.537086,51.370857 88.450493,51.655876 87.735718,51.356602 
	C86.776863,49.248627 85.818001,47.140652 84.779953,44.364735 
	C84.604019,43.954319 84.428085,43.543907 84.524391,42.444294 
	C83.955635,40.643955 83.386887,38.843613 82.876793,36.398228 
	C82.810532,35.973698 82.744263,35.549168 82.913231,34.388542 
	C82.745705,33.387730 82.578186,32.386921 82.234154,30.331648 
	C79.486809,34.174988 78.341438,37.088524 80.390221,41.150204 
	C80.492775,41.749413 80.595337,42.348625 80.363358,43.451874 
	C80.950806,44.957958 81.538261,46.464046 82.154930,48.712704 
	C83.061882,51.316105 83.968834,53.919506 84.922882,56.658096 
	C83.173225,56.814045 81.804260,56.936062 78.870300,57.197571 
	C81.619667,59.820309 83.445282,61.561844 85.419556,63.994205 
	C86.378365,65.608284 87.337173,67.222366 88.216682,69.514236 
	C89.021889,70.774857 89.827103,72.035484 90.864914,74.019592 
	C91.370117,76.018478 91.875328,78.017372 92.167282,80.868942 
	C92.146065,82.924980 92.124855,84.981010 91.481308,86.941910 
	C91.077553,86.830376 90.673798,86.718842 90.137100,85.919189 
	C87.125008,81.855209 84.112915,77.791237 80.822609,73.132195 
	C78.115845,69.453064 75.409088,65.773933 72.758423,61.421963 
	C71.982689,60.121204 71.206955,58.820450 70.287979,56.821850 
	C69.735558,55.252174 69.183144,53.682495 68.747398,51.347626 
	C67.840416,49.118637 66.933434,46.889648 66.026451,44.660660 
	C65.283676,44.900230 64.540901,45.139801 63.798122,45.379372 
	C64.230850,47.913746 64.663574,50.448120 65.121292,53.634727 
	C65.257072,54.045555 65.392860,54.456383 65.324226,55.455330 
	C65.757698,56.115284 66.191177,56.775242 66.680046,58.151596 
	C67.212776,60.205372 67.745506,62.259144 68.524895,65.263817 
	C62.236969,62.507427 60.134899,57.186371 56.792076,52.356823 
	C55.287201,48.721298 53.782322,45.085770 51.806709,40.313030 
	C49.759857,45.612129 50.374187,49.242687 53.361443,53.403973 
	C55.552086,56.955608 57.742733,60.507240 60.167686,64.438759 
	C55.787762,66.224770 51.784023,67.857384 47.780289,69.489998 
	C48.011570,70.069626 48.242851,70.649261 48.474133,71.228889 
	C51.011650,70.780464 53.533249,70.182594 56.089527,69.910271 
	C65.618202,68.895149 73.476959,72.280495 80.201241,79.830856 
	C82.342728,84.199844 84.484215,88.568825 86.433289,93.732796 
	C86.798531,97.175095 87.163773,100.617393 87.192757,104.762909 
	C86.169914,107.861526 85.147072,110.960152 83.553215,114.412666 
	C78.813919,119.184219 74.074623,123.955780 68.614532,128.723282 
	C63.978062,129.810013 59.320431,131.837234 54.710735,131.733551 
	C49.528423,131.616974 44.389374,129.577301 38.758064,127.953423 
	C34.559242,124.947624 30.360418,121.941826 26.007715,118.254837 
	C23.383154,113.984055 20.758593,109.713272 18.281250,104.668396 
	C17.561749,101.751282 16.842249,98.834175 16.398602,95.166908 
	C16.438061,87.120445 16.477520,79.073975 16.907030,70.329140 
	C18.585106,65.216469 20.263182,60.103798 22.408499,54.485317 
	C23.351339,52.557178 24.294180,50.629040 25.855709,48.362858 
	C30.765396,42.963741 35.675083,37.564625 41.193432,32.167217 
	C42.132389,31.456915 43.071342,30.746613 44.662910,29.928528 
	C45.303917,29.342094 45.944923,28.755663 47.276344,28.150290 
	C51.848282,26.083298 56.420216,24.016304 61.688091,21.942106 
	C62.120991,21.784748 62.553890,21.627390 63.599110,21.600990 
	C64.383720,21.335579 65.168327,21.070166 66.669762,20.836950 
	C67.109581,20.662628 67.549400,20.488306 68.501274,20.530352 
	C68.997566,20.342922 69.493851,20.155493 70.805824,20.064180 
	C71.869789,19.859676 72.933762,19.655170 74.767563,19.626362 
	C76.509598,19.411858 78.251625,19.197355 80.819458,19.138958 
	C82.215431,19.087055 83.611397,19.035152 85.422882,19.353588 
	C85.949425,19.322565 86.475967,19.291540 87.757965,19.643064 
	C89.161774,19.783405 90.565575,19.923744 92.383148,20.443417 
	C92.926765,20.461489 93.470383,20.479563 94.705345,20.816727 
	C95.458214,20.900278 96.211090,20.983828 97.365128,21.468748 
	C97.915359,21.514181 98.465584,21.559616 99.640312,21.895811 
	C100.542801,22.016014 101.445282,22.136219 102.730415,22.864315 
	C104.476730,23.595842 106.223045,24.327372 108.387062,25.596218 
	C114.109726,29.453321 119.832382,33.310425 125.817245,37.818653 
	C128.314178,40.636307 130.811111,43.453960 133.539352,46.962063 
	C135.642776,50.440636 137.746201,53.919209 139.901840,58.128468 
	C141.302780,62.085808 142.703720,66.043144 143.997437,70.847168 
	C144.431015,74.565224 144.864609,78.283279 145.098953,82.907776 
	C144.710876,88.269783 144.322800,93.631798 143.615799,99.660622 
	C142.596771,102.724449 141.577744,105.788277 140.071091,109.335983 
	C138.559311,112.842041 137.047516,116.348091 135.042389,120.276649 
	C133.082458,123.535843 131.122513,126.795036 128.562637,130.360016 
	C122.586388,135.772552 116.610138,141.185104 110.556793,146.780167 
	C110.556793,146.780167 110.605515,146.586517 109.996574,146.683029 
	C109.346497,147.456009 108.696419,148.229004 107.473846,149.347534 
	C104.223038,152.536621 100.972237,155.725708 97.157639,159.226318 
	C95.471756,161.490234 93.785881,163.754135 91.754044,166.367325 
	C91.553780,166.668594 91.528191,166.984024 91.135468,167.671432 
	C90.862312,168.454910 90.589149,169.238403 89.944756,170.518509 
	C89.859108,171.116562 89.773468,171.714600 89.067162,172.730057 
	C88.703964,175.122559 84.607002,177.486145 89.927567,180.100037 
	C93.755066,180.101974 97.606209,180.352448 101.399185,179.991577 
	C103.069534,179.832642 104.621613,178.430679 106.815346,177.281769 
	C107.231056,176.529617 107.646759,175.777451 108.654572,174.757004 
	C110.075340,173.442932 111.496117,172.128860 113.570786,170.628922 
	C119.708031,167.736710 125.845276,164.844482 132.759995,161.941971 
	C139.319366,160.291931 145.991043,158.983948 152.401062,156.879105 
	C157.169662,155.313248 161.599243,152.715042 166.856628,150.308441 
	C169.857437,147.140518 172.797424,143.948364 171.600708,138.494431 
	C171.393661,137.998459 171.186600,137.502502 171.074890,136.184280 
	C171.089142,134.807129 171.103394,133.429977 171.708618,131.686234 
	C176.654541,125.745308 176.763687,124.805664 172.759888,120.345818 
	C173.190277,118.770798 173.186127,116.838394 174.132507,115.687737 
	C176.979767,112.225807 176.858734,109.500221 172.643295,106.513168 
	C173.458603,104.754753 174.273911,102.996338 175.770447,101.046425 
	C181.457550,96.024727 181.442886,93.515266 175.669113,88.812256 
	C172.457031,86.195869 169.222610,83.606895 165.702713,80.407051 
	C163.322525,77.203972 160.942352,74.000885 158.415268,70.050209 
	C156.596390,65.699516 154.777512,61.348824 152.966782,56.247730 
	C151.017776,52.148579 149.068771,48.049431 147.011734,43.254467 
	C145.030594,40.449348 143.049469,37.644230 140.875992,34.195267 
	C135.407272,29.223131 129.938538,24.250996 123.933868,18.884193 
	C118.176247,15.764383 112.707878,11.828984 106.610710,9.666565 
	C80.819366,0.519428 56.858097,4.496729 34.354206,21.185623 
	C31.865335,23.357384 29.376463,25.529146 26.229555,27.910446 
	C22.464394,33.270359 18.699232,38.630268 14.445950,44.491646 
	C13.082715,47.570190 11.719480,50.648739 9.804797,54.122620 
	C8.431483,60.045807 7.058169,65.968994 5.282633,72.562645 
	C5.638696,79.707870 5.994759,86.853088 6.222004,94.774239 
	C7.160567,98.179604 8.099129,101.584961 9.007697,105.717262 
	C9.770720,107.478714 10.533743,109.240158 11.245655,111.568321 
	C11.552006,112.022545 11.858356,112.476761 12.173347,113.618347 
	C13.734482,115.858986 15.295617,118.099625 17.211710,120.883354 
	C21.820297,124.897339 26.428885,128.911331 31.473652,133.456192 
	C35.066502,135.040695 38.521988,137.311356 42.281380,138.063965 
	C49.644699,139.538055 55.992645,142.841980 62.312740,147.589630 
	C68.880547,153.331406 73.217720,160.440033 75.217400,169.533569 
	C75.539169,170.127838 75.860931,170.722092 76.182693,171.316360 
	C76.447266,170.540436 76.711838,169.764526 77.060097,168.190720 
	C77.014717,167.122742 76.969330,166.054764 77.261856,164.622025 
	C76.998062,163.907227 76.734268,163.192429 76.441864,161.715027 
	C75.199440,157.854218 73.957016,153.993408 72.736565,150.200897 
	C74.256157,149.312408 75.471390,148.601883 77.037971,147.685928 
	C73.029648,146.352783 69.513077,145.183182 65.557304,143.277206 
	C63.524090,140.812988 63.612648,139.170609 67.248581,138.882919 
	C70.832390,138.599365 74.415276,138.304153 78.407158,138.419785 
	C79.271767,138.273056 80.136383,138.126328 81.834229,138.018936 
	C83.223808,137.996338 84.613396,137.973724 86.466446,138.380905 
	C87.643204,138.238922 88.819962,138.096954 90.779053,138.055542 
	C92.068932,138.265259 93.358810,138.474991 95.077644,139.166809 
z"/>
<path fill="#9FCB43" opacity="1.000000" stroke="none" 
	d="
M67.989220,20.313984 
	C67.549400,20.488306 67.109581,20.662628 66.116913,20.612499 
	C64.704971,20.748711 63.845882,21.109371 62.986790,21.470032 
	C62.553890,21.627390 62.120991,21.784748 61.263145,21.577044 
	C60.649837,20.952637 60.445366,20.456486 60.275429,20.468046 
	C53.177727,20.950863 46.086739,21.543383 38.984844,21.943520 
	C37.679016,22.017092 36.330532,21.333490 35.001736,20.999386 
	C56.858097,4.496729 80.819366,0.519428 106.610710,9.666565 
	C112.707878,11.828984 118.176247,15.764383 123.927872,19.463234 
	C119.279755,20.695438 114.637634,21.348602 109.741135,21.720577 
	C107.107101,21.711733 104.727432,21.984077 102.347771,22.256422 
	C101.445282,22.136219 100.542801,22.016014 99.269394,21.488316 
	C98.253632,21.076340 97.608795,21.071857 96.963959,21.067375 
	C96.211090,20.983828 95.458214,20.900278 94.292679,20.406239 
	C93.243141,20.018528 92.606262,20.041307 91.969383,20.064085 
	C90.565575,19.923744 89.161774,19.783405 87.296204,19.232914 
	C86.225426,18.876261 85.616394,18.929754 85.007370,18.983250 
	C83.611397,19.035152 82.215431,19.087055 80.164566,18.792809 
	C77.672356,18.781330 75.835045,19.115999 73.997726,19.450668 
	C72.933762,19.655170 71.869789,19.859676 70.264587,19.810169 
	C69.145302,19.808767 68.567261,20.061377 67.989220,20.313984 
z"/>
<path fill="#46B071" opacity="1.000000" stroke="none" 
	d="
M166.179825,150.576645 
	C161.599243,152.715042 157.169662,155.313248 152.401062,156.879105 
	C145.991043,158.983948 139.319366,160.291931 132.201111,161.633652 
	C127.961418,160.216873 124.308449,158.297165 120.594002,158.169739 
	C112.987282,157.908752 105.347557,158.609863 97.721436,158.914795 
	C100.972237,155.725708 104.223038,152.536621 108.132111,149.166580 
	C109.395424,148.185928 110.000473,147.386215 110.605515,146.586517 
	C110.605515,146.586517 110.556793,146.780167 110.993103,146.814575 
	C114.650520,146.021210 117.820251,144.246460 121.163536,146.743881 
	C121.554649,147.036057 122.842789,146.038528 123.749542,145.745590 
	C126.665703,144.803513 129.564896,143.306900 132.531998,143.144409 
	C136.784103,142.911484 141.119873,143.464706 145.360794,144.085953 
	C147.447083,144.391571 149.357544,145.750671 151.428253,146.357834 
	C152.967194,146.809052 155.811905,147.422714 156.065750,146.929657 
	C158.712891,141.787704 162.834503,144.614670 166.179825,144.308029 
	C166.179825,146.657349 166.179825,148.617004 166.179825,150.576645 
z"/>
<path fill="#4EB16D" opacity="1.000000" stroke="none" 
	d="
M166.518219,150.442535 
	C166.179825,148.617004 166.179825,146.657349 166.179825,144.308029 
	C162.834503,144.614670 158.712891,141.787704 156.065750,146.929657 
	C155.811905,147.422714 152.967194,146.809052 151.428253,146.357834 
	C149.357544,145.750671 147.447083,144.391571 145.360794,144.085953 
	C141.119873,143.464706 136.784103,142.911484 132.531998,143.144409 
	C129.564896,143.306900 126.665703,144.803513 123.749542,145.745590 
	C122.842789,146.038528 121.554649,147.036057 121.163536,146.743881 
	C117.820251,144.246460 114.650520,146.021210 111.031647,146.723328 
	C116.610138,141.185104 122.586388,135.772552 129.224365,130.201889 
	C132.149872,130.894257 134.431030,132.509308 136.674377,132.458420 
	C144.898987,132.271851 153.105392,131.376480 161.330627,131.076447 
	C164.576782,130.958023 167.854355,131.701706 171.117630,132.052826 
	C171.103394,133.429977 171.089142,134.807129 170.816803,136.728851 
	C170.825699,137.852676 171.092667,138.431961 171.359634,139.011246 
	C172.797424,143.948364 169.857437,147.140518 166.518219,150.442535 
z"/>
<path fill="#5DB56B" opacity="1.000000" stroke="none" 
	d="
M171.413116,131.869537 
	C167.854355,131.701706 164.576782,130.958023 161.330627,131.076447 
	C153.105392,131.376480 144.898987,132.271851 136.674377,132.458420 
	C134.431030,132.509308 132.149872,130.894257 129.524323,130.048996 
	C131.122513,126.795036 133.082458,123.535843 135.722107,120.077179 
	C139.621384,119.904167 142.843445,119.858849 146.060028,119.970764 
	C155.024094,120.282669 163.985870,120.659782 172.948563,121.011139 
	C176.763687,124.805664 176.654541,125.745308 171.413116,131.869537 
z"/>
<path fill="#55B26D" opacity="1.000000" stroke="none" 
	d="
M39.231503,128.374237 
	C44.389374,129.577301 49.528423,131.616974 54.710735,131.733551 
	C59.320431,131.837234 63.978062,129.810013 69.432190,128.803711 
	C72.022110,128.654114 73.791901,128.402237 75.567505,128.201691 
	C76.766380,128.066299 78.491142,127.484688 79.046120,128.038757 
	C79.744049,128.735535 79.627357,130.390747 79.602409,131.627167 
	C79.579636,132.755508 79.210220,133.876877 78.694916,135.037094 
	C78.312370,135.738937 78.228508,136.405014 78.094788,137.304749 
	C78.044922,137.538437 77.998566,138.014069 77.998566,138.014069 
	C74.415276,138.304153 70.832390,138.599365 67.248581,138.882919 
	C63.612648,139.170609 63.524090,140.812988 65.735367,143.998138 
	C64.628021,145.471985 63.342625,146.224915 62.057228,146.977859 
	C55.992645,142.841980 49.644699,139.538055 42.281380,138.063965 
	C38.521988,137.311356 35.066502,135.040695 31.402225,132.859985 
	C32.063091,129.856888 33.102615,128.237961 36.139679,129.429214 
	C36.913330,129.732666 38.187374,128.760376 39.231503,128.374237 
z"/>
<path fill="#65B766" opacity="1.000000" stroke="none" 
	d="
M172.854218,120.678482 
	C163.985870,120.659782 155.024094,120.282669 146.060028,119.970764 
	C142.843445,119.858849 139.621384,119.904167 135.968781,119.865936 
	C137.047516,116.348091 138.559311,112.842041 140.761627,109.135391 
	C145.407196,108.616096 149.362305,108.038391 153.317276,108.039352 
	C159.259857,108.040794 165.201431,108.493378 171.146255,108.611115 
	C171.738281,108.622826 172.349915,107.645210 172.952454,107.126755 
	C176.858734,109.500221 176.979767,112.225807 174.132507,115.687737 
	C173.186127,116.838394 173.190277,118.770798 172.854218,120.678482 
z"/>
<path fill="#6CB962" opacity="1.000000" stroke="none" 
	d="
M172.797882,106.819962 
	C172.349915,107.645210 171.738281,108.622826 171.146255,108.611115 
	C165.201431,108.493378 159.259857,108.040794 153.317276,108.039352 
	C149.362305,108.038391 145.407196,108.616096 141.005432,108.893448 
	C141.577744,105.788277 142.596771,102.724449 144.160461,99.321983 
	C146.287933,97.202644 147.870728,95.421944 149.723679,93.337311 
	C150.761581,93.687332 152.386642,94.643364 154.053192,94.722176 
	C159.407730,94.975380 164.777725,94.953880 170.141418,94.936211 
	C172.532669,94.928329 174.923111,94.676659 177.313919,94.535637 
	C176.572357,96.769730 175.830795,99.003830 175.089233,101.237930 
	C174.273911,102.996338 173.458603,104.754753 172.797882,106.819962 
z"/>
<path fill="#76BC5F" opacity="1.000000" stroke="none" 
	d="
M175.429840,101.142181 
	C175.830795,99.003830 176.572357,96.769730 177.313919,94.535637 
	C174.923111,94.676659 172.532669,94.928329 170.141418,94.936211 
	C164.777725,94.953880 159.407730,94.975380 154.053192,94.722176 
	C152.386642,94.643364 150.761581,93.687332 149.723679,93.337311 
	C147.870728,95.421944 146.287933,97.202644 144.319916,98.988571 
	C144.322800,93.631798 144.710876,88.269783 145.584320,82.454529 
	C147.819489,82.381149 149.555328,82.863770 151.324081,83.104416 
	C152.484726,83.262329 154.283432,83.556030 154.779343,82.952820 
	C157.140015,80.081230 159.068344,80.884071 161.501434,82.857468 
	C163.708267,84.647346 165.882797,84.971336 165.998260,81.005569 
	C169.222610,83.606895 172.457031,86.195869 175.669113,88.812256 
	C181.442886,93.515266 181.457550,96.024727 175.429840,101.142181 
z"/>
<path fill="#63B56E" opacity="1.000000" stroke="none" 
	d="
M78.993591,135.001312 
	C79.210220,133.876877 79.579636,132.755508 79.602409,131.627167 
	C79.627357,130.390747 79.744049,128.735535 79.046120,128.038757 
	C78.491142,127.484688 76.766380,128.066299 75.567505,128.201691 
	C73.791901,128.402237 72.022110,128.654114 69.792587,128.805740 
	C74.074623,123.955780 78.813919,119.184219 84.137741,114.393044 
	C85.890549,115.877556 87.058823,117.381691 88.358002,119.054359 
	C89.743065,118.114479 91.070175,117.213928 92.397285,116.313385 
	C93.156746,116.148872 93.916199,115.984352 95.385666,115.941750 
	C97.375435,117.034134 98.655190,118.004601 99.934952,118.975067 
	C99.001564,120.009781 98.068176,121.044487 96.853996,122.390472 
	C104.481796,124.657860 109.610497,118.808731 115.979416,117.113228 
	C117.720833,121.095139 115.694748,122.159218 112.449638,123.177284 
	C102.028114,126.446793 91.704834,130.029434 80.985992,134.028961 
	C80.083412,134.711548 79.538506,134.856430 78.993591,135.001312 
z"/>
<path fill="#3FAF78" opacity="1.000000" stroke="none" 
	d="
M97.439529,159.070557 
	C105.347557,158.609863 112.987282,157.908752 120.594002,158.169739 
	C124.308449,158.297165 127.961418,160.216873 131.812363,161.638794 
	C125.845276,164.844482 119.708031,167.736710 113.092964,170.414154 
	C111.023506,169.187668 109.522324,167.521027 107.823364,167.286407 
	C102.623039,166.568207 97.346748,166.400101 92.099998,166.018051 
	C93.785881,163.754135 95.471756,161.490234 97.439529,159.070557 
z"/>
<path fill="#98C74A" opacity="1.000000" stroke="none" 
	d="
M109.995514,22.001766 
	C114.637634,21.348602 119.279755,20.695438 124.195847,19.660568 
	C129.938538,24.250996 135.407272,29.223131 140.899994,34.880985 
	C137.034103,37.302345 133.316910,37.430847 130.047043,34.322788 
	C128.479950,35.315212 127.017494,36.241371 125.555038,37.167526 
	C119.832382,33.310425 114.109726,29.453321 108.307083,25.047443 
	C108.816574,23.666368 109.406044,22.834066 109.995514,22.001766 
z"/>
<path fill="#85BE58" opacity="1.000000" stroke="none" 
	d="
M79.924751,79.218117 
	C73.476959,72.280495 65.618202,68.895149 56.089527,69.910271 
	C53.533249,70.182594 51.011650,70.780464 48.474133,71.228889 
	C48.242851,70.649261 48.011570,70.069626 47.780289,69.489998 
	C51.784023,67.857384 55.787762,66.224770 60.167686,64.438759 
	C57.742733,60.507240 55.552086,56.955608 53.733685,53.107475 
	C55.001415,52.899132 55.896908,52.987286 56.792397,53.075439 
	C60.134899,57.186371 62.236969,62.507427 68.524895,65.263817 
	C67.745506,62.259144 67.212776,60.205372 66.748993,57.478203 
	C66.388184,56.158943 65.958412,55.513073 65.528648,54.867207 
	C65.392860,54.456383 65.257072,54.045555 65.329910,53.134495 
	C66.064812,49.469055 67.553795,52.012684 68.630722,52.112820 
	C69.183144,53.682495 69.735558,55.252174 70.251175,57.532501 
	C71.043686,59.527035 71.873009,60.810917 72.702332,62.094799 
	C75.409088,65.773933 78.115845,69.453064 80.900269,73.829758 
	C80.626877,76.090927 80.275810,77.654518 79.924751,79.218117 
z"/>
<path fill="#78BC5E" opacity="1.000000" stroke="none" 
	d="
M80.062996,79.524490 
	C80.275810,77.654518 80.626877,76.090927 81.039383,74.127289 
	C84.112915,77.791237 87.125008,81.855209 90.143761,86.608963 
	C90.751419,87.794601 91.352425,88.290459 91.953415,88.786316 
	C92.003487,88.203224 92.053558,87.620140 92.103638,87.037048 
	C92.124855,84.981010 92.146065,82.924980 92.627090,80.438629 
	C94.277634,80.010307 95.468369,80.012306 96.927750,80.273964 
	C100.875755,81.355034 100.596939,78.828072 100.585510,76.527298 
	C100.983116,75.866348 101.380722,75.205391 102.237488,74.306465 
	C104.146767,75.408249 105.596886,76.748009 107.047005,78.087761 
	C104.004128,82.502548 100.961250,86.917336 97.418808,91.741684 
	C96.262733,93.771568 95.606216,95.391899 94.580627,96.964317 
	C92.316338,96.585716 90.009323,94.337540 88.730377,97.802414 
	C87.862244,96.022560 87.243973,94.480186 86.625702,92.937813 
	C84.484215,88.568825 82.342728,84.199844 80.062996,79.524490 
z"/>
<path fill="#2CAC73" opacity="1.000000" stroke="none" 
	d="
M91.927017,166.192688 
	C97.346748,166.400101 102.623039,166.568207 107.823364,167.286407 
	C109.522324,167.521027 111.023506,169.187668 112.766022,170.507095 
	C111.496117,172.128860 110.075340,173.442932 107.987495,174.942551 
	C106.956078,175.949768 106.591736,176.771423 106.227386,177.593094 
	C104.621613,178.430679 103.069534,179.832642 101.399185,179.991577 
	C97.606209,180.352448 93.755066,180.101974 89.468277,179.587433 
	C89.235260,176.820786 89.461540,174.566711 89.687820,172.312653 
	C89.773468,171.714600 89.859108,171.116562 90.466705,170.169266 
	C91.218193,168.984558 91.447746,168.149094 91.677292,167.313629 
	C91.528191,166.984024 91.553780,166.668594 91.927017,166.192688 
z"/>
<path fill="#9CC94D" opacity="1.000000" stroke="none" 
	d="
M34.677971,21.092505 
	C36.330532,21.333490 37.679016,22.017092 38.984844,21.943520 
	C46.086739,21.543383 53.177727,20.950863 60.275429,20.468046 
	C60.445366,20.456486 60.649837,20.952637 60.915176,21.580647 
	C56.420216,24.016304 51.848282,26.083298 46.549557,28.138363 
	C45.218613,28.763060 44.614456,29.399685 44.010296,30.036312 
	C43.071342,30.746613 42.132389,31.456915 40.480042,32.141701 
	C34.946133,32.941738 28.286987,30.658812 26.887592,27.700907 
	C29.376463,25.529146 31.865335,23.357384 34.677971,21.092505 
z"/>
<path fill="#97C754" opacity="1.000000" stroke="none" 
	d="
M26.558575,27.805676 
	C28.286987,30.658812 34.946133,32.941738 40.175709,32.140846 
	C35.675083,37.564625 30.765396,42.963741 25.484383,48.095409 
	C24.702879,44.668499 23.673870,42.547783 19.762941,43.817150 
	C18.289787,44.295292 16.551495,43.956535 14.934071,43.990181 
	C18.699232,38.630268 22.464394,33.270359 26.558575,27.805676 
z"/>
<path fill="#7DBE59" opacity="1.000000" stroke="none" 
	d="
M165.850494,80.706314 
	C165.882797,84.971336 163.708267,84.647346 161.501434,82.857468 
	C159.068344,80.884071 157.140015,80.081230 154.779343,82.952820 
	C154.283432,83.556030 152.484726,83.262329 151.324081,83.104416 
	C149.555328,82.863770 147.819489,82.381149 145.683929,82.001312 
	C144.864609,78.283279 144.431015,74.565224 144.415543,70.418854 
	C146.362061,68.819595 147.890472,67.648643 149.999603,66.032799 
	C151.749863,69.241669 153.351913,73.780540 158.562180,70.797798 
	C160.942352,74.000885 163.322525,77.203972 165.850494,80.706314 
z"/>
<path fill="#80C066" opacity="1.000000" stroke="none" 
	d="
M16.516981,71.027512 
	C16.477520,79.073975 16.438061,87.120445 16.001341,95.412643 
	C13.153163,89.883041 12.963831,89.838585 7.742900,93.538818 
	C7.361769,93.808945 6.818636,93.850494 6.350821,93.998314 
	C5.994759,86.853088 5.638696,79.707870 5.874355,72.261230 
	C8.705538,73.161156 10.944998,74.362488 13.199933,75.572121 
	C14.302557,74.061440 15.409770,72.544479 16.516981,71.027512 
z"/>
<path fill="#89C25D" opacity="1.000000" stroke="none" 
	d="
M16.712006,70.678329 
	C15.409770,72.544479 14.302557,74.061440 13.199933,75.572121 
	C10.944998,74.362488 8.705538,73.161156 6.075467,71.926003 
	C7.058169,65.968994 8.431483,60.045807 10.437544,54.101662 
	C13.364697,56.086079 13.532423,61.082012 18.802893,59.476105 
	C18.314400,56.850647 18.024298,54.252842 21.941257,54.991127 
	C20.263182,60.103798 18.585106,65.216469 16.712006,70.678329 
z"/>
<path fill="#87C15A" opacity="1.000000" stroke="none" 
	d="
M158.488724,70.424004 
	C153.351913,73.780540 151.749863,69.241669 149.999603,66.032799 
	C147.890472,67.648643 146.362061,68.819595 144.469147,69.995514 
	C142.703720,66.043144 141.302780,62.085808 139.949280,57.386604 
	C141.686523,56.107540 143.416962,55.031700 145.056854,55.155510 
	C147.721954,55.356709 150.327774,56.343143 152.958618,56.998135 
	C154.777512,61.348824 156.596390,65.699516 158.488724,70.424004 
z"/>
<path fill="#8FC457" opacity="1.000000" stroke="none" 
	d="
M152.962708,56.622932 
	C150.327774,56.343143 147.721954,55.356709 145.056854,55.155510 
	C143.416962,55.031700 141.686523,56.107540 139.923187,57.021259 
	C137.746201,53.919209 135.642776,50.440636 133.866745,46.544376 
	C138.502686,45.401218 142.811218,44.675751 147.119766,43.950283 
	C149.068771,48.049431 151.017776,52.148579 152.962708,56.622932 
z"/>
<path fill="#8BC153" opacity="1.000000" stroke="none" 
	d="
M94.896210,42.980804 
	C94.860855,43.413605 94.825500,43.846409 94.365211,44.720390 
	C93.911194,47.096615 93.882111,49.031666 93.853020,50.966713 
	C93.881447,52.054531 93.909874,53.142345 93.633202,54.897949 
	C93.231392,57.045185 93.134666,58.524639 92.645264,60.004478 
	C89.925354,61.104366 87.598129,62.203873 85.270905,63.303379 
	C83.445282,61.561844 81.619667,59.820309 78.870300,57.197571 
	C81.804260,56.936062 83.173225,56.814045 84.922882,56.658096 
	C83.968834,53.919506 83.061882,51.316105 82.367874,48.124504 
	C81.953171,46.006813 81.325531,44.477322 80.697891,42.947834 
	C80.595337,42.348625 80.492775,41.749413 80.578751,40.446838 
	C81.404190,38.203857 82.041092,36.664249 82.677994,35.124638 
	C82.744263,35.549168 82.810532,35.973698 82.609406,36.951149 
	C82.978722,39.380543 83.615440,41.257019 84.252151,43.133492 
	C84.428085,43.543907 84.604019,43.954319 84.599457,44.923584 
	C85.541679,47.677788 86.664413,49.873138 87.787140,52.068493 
	C88.450493,51.655876 89.537086,51.370857 89.706375,50.809292 
	C90.598228,47.851036 91.258568,44.822983 92.421509,41.491478 
	C93.527916,41.769470 94.212067,42.375137 94.896210,42.980804 
z"/>
<path fill="#8BC350" opacity="1.000000" stroke="none" 
	d="
M22.174877,54.738220 
	C18.024298,54.252842 18.314400,56.850647 18.802893,59.476105 
	C13.532423,61.082012 13.364697,56.086079 10.713268,53.903992 
	C11.719480,50.648739 13.082715,47.570190 14.690010,44.240913 
	C16.551495,43.956535 18.289787,44.295292 19.762941,43.817150 
	C23.673870,42.547783 24.702879,44.668499 25.175037,48.264427 
	C24.294180,50.629040 23.351339,52.557178 22.174877,54.738220 
z"/>
<path fill="#96C754" opacity="1.000000" stroke="none" 
	d="
M147.065750,43.602375 
	C142.811218,44.675751 138.502686,45.401218 133.751083,46.199150 
	C130.811111,43.453960 128.314178,40.636307 125.686142,37.493092 
	C127.017494,36.241371 128.479950,35.315212 130.047043,34.322788 
	C133.316910,37.430847 137.034103,37.302345 140.996170,35.202911 
	C143.049469,37.644230 145.030594,40.449348 147.065750,43.602375 
z"/>
<path fill="#61B66C" opacity="1.000000" stroke="none" 
	d="
M38.994781,128.163834 
	C38.187374,128.760376 36.913330,129.732666 36.139679,129.429214 
	C33.102615,128.237961 32.063091,129.856888 31.184134,132.594543 
	C26.428885,128.911331 21.820297,124.897339 17.132084,120.206940 
	C20.088839,119.332352 23.125217,119.134186 26.161596,118.936028 
	C30.360418,121.941826 34.559242,124.947624 38.994781,128.163834 
z"/>
<path fill="#6BB869" opacity="1.000000" stroke="none" 
	d="
M88.980240,98.039886 
	C90.009323,94.337540 92.316338,96.585716 94.807724,96.970871 
	C95.403893,97.025322 95.856232,96.996628 95.856232,96.996628 
	C95.786812,97.441582 95.717400,97.886528 95.235252,98.734680 
	C94.810768,100.070953 94.799026,101.004028 94.787277,101.937103 
	C94.745544,102.395844 94.703812,102.854584 94.278305,103.700127 
	C93.873383,104.708809 93.852249,105.330681 93.831100,105.952560 
	C93.775368,106.718285 93.719635,107.484001 93.261108,108.668617 
	C92.831009,109.703407 92.803680,110.319313 92.776352,110.935211 
	C92.714203,112.429222 92.652054,113.923241 92.493591,115.865311 
	C91.070175,117.213928 89.743065,118.114479 88.358002,119.054359 
	C87.058823,117.381691 85.890549,115.877556 84.423248,114.216095 
	C85.147072,110.960152 86.169914,107.861526 87.675598,104.267456 
	C88.432373,101.861290 88.706306,99.950592 88.980240,98.039886 
z"/>
<path fill="#73BA68" opacity="1.000000" stroke="none" 
	d="
M6.286413,94.386276 
	C6.818636,93.850494 7.361769,93.808945 7.742900,93.538818 
	C12.963831,89.838585 13.153163,89.883041 15.863415,95.787720 
	C16.842249,98.834175 17.561749,101.751282 18.152273,105.445770 
	C16.842897,106.400955 14.745097,106.975998 14.623560,106.695305 
	C13.363867,103.786133 11.267528,104.299728 9.037691,104.990326 
	C8.099129,101.584961 7.160567,98.179604 6.286413,94.386276 
z"/>
<path fill="#5AB47D" opacity="1.000000" stroke="none" 
	d="
M62.184982,147.283752 
	C63.342625,146.224915 64.628021,145.471985 65.954956,144.366333 
	C69.513077,145.183182 73.029648,146.352783 77.037971,147.685928 
	C75.471390,148.601883 74.256157,149.312408 72.736565,150.200897 
	C73.957016,153.993408 75.199440,157.854218 76.330627,162.429413 
	C76.454247,163.758133 76.689095,164.372467 76.923943,164.986786 
	C76.969330,166.054764 77.014717,167.122742 76.748466,168.592422 
	C76.079582,168.959579 75.722328,168.925034 75.365074,168.890488 
	C73.217720,160.440033 68.880547,153.331406 62.184982,147.283752 
z"/>
<path fill="#6CB86C" opacity="1.000000" stroke="none" 
	d="
M9.022694,105.353790 
	C11.267528,104.299728 13.363867,103.786133 14.623560,106.695305 
	C14.745097,106.975998 16.842897,106.400955 18.078663,105.832825 
	C20.758593,109.713272 23.383154,113.984055 26.084656,118.595428 
	C23.125217,119.134186 20.088839,119.332352 16.954605,119.935394 
	C15.295617,118.099625 13.734482,115.858986 12.363636,113.108162 
	C12.134871,112.065857 11.715817,111.533730 11.296764,111.001610 
	C10.533743,109.240158 9.770720,107.478714 9.022694,105.353790 
z"/>
<path fill="#83C05B" opacity="1.000000" stroke="none" 
	d="
M85.345230,63.648792 
	C87.598129,62.203873 89.925354,61.104366 92.677200,60.289856 
	C93.583900,61.088188 94.065994,61.601524 94.548080,62.114861 
	C94.647835,62.536842 94.747589,62.958820 94.654068,63.848595 
	C94.727707,64.921967 94.994629,65.527542 95.261551,66.133118 
	C95.491173,67.486832 95.720787,68.840553 95.708206,70.765823 
	C95.669502,71.895882 95.872978,72.454399 96.076462,73.012909 
	C96.371986,74.776299 96.667511,76.539680 96.890717,78.925995 
	C96.818390,79.548912 96.659103,80.014297 96.659103,80.014297 
	C95.468369,80.012306 94.277634,80.010307 92.733719,80.012291 
	C91.875328,78.017372 91.370117,76.018478 90.829239,73.308990 
	C89.961029,71.344414 89.128510,70.090431 88.295982,68.836449 
	C87.337173,67.222366 86.378365,65.608284 85.345230,63.648792 
z"/>
<path fill="#6BB766" opacity="1.000000" stroke="none" 
	d="
M100.246231,118.835999 
	C98.655190,118.004601 97.375435,117.034134 95.772011,115.897751 
	C99.612274,112.678223 103.777542,109.625580 104.340729,103.225739 
	C105.505310,100.694717 109.333916,105.152435 109.028534,100.666809 
	C109.794647,100.147850 110.560760,99.628883 111.736710,99.318405 
	C112.312843,99.798126 112.554657,99.945396 112.871994,99.968689 
	C112.871994,101.547386 112.871994,103.126091 112.871994,105.620735 
	C109.353142,109.357254 104.955322,114.027092 100.246231,118.835999 
z"/>
<path fill="#83BD59" opacity="1.000000" stroke="none" 
	d="
M107.352432,77.922913 
	C105.596886,76.748009 104.146767,75.408249 102.361313,74.035263 
	C103.700928,68.287331 105.375870,62.572632 107.352165,56.446007 
	C107.653519,56.034077 108.086899,55.953442 108.086899,55.953442 
	C109.407951,56.506077 110.729012,57.058708 112.273849,57.704960 
	C109.867462,62.783966 107.499542,67.781769 104.692322,73.706787 
	C107.557365,73.387985 109.026611,73.224495 111.889893,72.905891 
	C109.966721,75.110878 108.812286,76.434479 107.352432,77.922913 
z"/>
<path fill="#53AF6B" opacity="1.000000" stroke="none" 
	d="
M78.694916,135.037094 
	C79.538506,134.856430 80.083412,134.711548 80.791077,134.331024 
	C85.657051,134.093689 90.360268,134.091980 95.554535,134.445862 
	C96.085403,134.986969 96.125214,135.172485 96.165024,135.358002 
	C96.271385,135.651947 96.312477,135.954742 96.095200,136.862732 
	C95.484299,137.867630 95.066498,138.276169 94.648697,138.684708 
	C93.358810,138.474991 92.068932,138.265259 90.171623,137.763519 
	C88.377121,137.631393 87.190048,137.791260 86.002975,137.951141 
	C84.613396,137.973724 83.223808,137.996338 81.210938,137.762146 
	C79.773315,137.360596 78.958984,137.215836 78.144653,137.071075 
	C78.228508,136.405014 78.312370,135.738937 78.694916,135.037094 
z"/>
<path fill="#93C181" opacity="1.000000" stroke="none" 
	d="
M113.216034,99.930862 
	C112.554657,99.945396 112.312843,99.798126 112.087723,99.315918 
	C113.283150,92.879616 119.963631,87.593025 127.415459,86.772385 
	C122.883354,91.064156 118.221718,95.478600 113.216034,99.930862 
z"/>
<path fill="#AACC7C" opacity="1.000000" stroke="none" 
	d="
M56.792236,52.716133 
	C55.896908,52.987286 55.001415,52.899132 53.650097,52.705750 
	C50.374187,49.242687 49.759857,45.612129 51.806709,40.313030 
	C53.782322,45.085770 55.287201,48.721298 56.792236,52.716133 
z"/>
<path fill="#97C88B" opacity="1.000000" stroke="none" 
	d="
M108.821243,100.321686 
	C109.333916,105.152435 105.505310,100.694717 104.444038,102.848648 
	C104.229927,99.645950 104.229927,96.281593 104.229927,92.917236 
	C104.578499,92.805840 104.927078,92.694435 105.275650,92.583031 
	C106.388412,95.047539 107.501175,97.512047 108.821243,100.321686 
z"/>
<path fill="#ABCD82" opacity="1.000000" stroke="none" 
	d="
M68.689056,51.730225 
	C67.553795,52.012684 66.064812,49.469055 65.317413,52.808380 
	C64.663574,50.448120 64.230850,47.913746 63.798122,45.379372 
	C64.540901,45.139801 65.283676,44.900230 66.026451,44.660660 
	C66.933434,46.889648 67.840416,49.118637 68.689056,51.730225 
z"/>
<path fill="#9DC9A6" opacity="1.000000" stroke="none" 
	d="
M94.863174,138.925751 
	C95.066498,138.276169 95.484299,137.867630 96.137131,137.089020 
	C98.570129,137.967255 100.768097,139.215591 102.966057,140.463913 
	C102.665039,141.031830 102.364021,141.599731 102.063004,142.167648 
	C99.734550,141.167374 97.406097,140.167084 94.863174,138.925751 
z"/>
<path fill="#ACCE7B" opacity="1.000000" stroke="none" 
	d="
M82.795609,34.756592 
	C82.041092,36.664249 81.404190,38.203857 80.586250,40.142315 
	C78.341438,37.088524 79.486809,34.174988 82.234154,30.331648 
	C82.578186,32.386921 82.745705,33.387730 82.795609,34.756592 
z"/>
<path fill="#9CC94D" opacity="1.000000" stroke="none" 
	d="
M109.741135,21.720577 
	C109.406044,22.834066 108.816574,23.666368 108.098236,24.778786 
	C106.223045,24.327372 104.476730,23.595842 102.539093,22.560368 
	C104.727432,21.984077 107.107101,21.711733 109.741135,21.720577 
z"/>
<path fill="#86C07C" opacity="1.000000" stroke="none" 
	d="
M88.730377,97.802414 
	C88.706306,99.950592 88.432373,101.861290 87.843735,103.915848 
	C87.163773,100.617393 86.798531,97.175095 86.529495,93.335304 
	C87.243973,94.480186 87.862244,96.022560 88.730377,97.802414 
z"/>
<path fill="#A7CB80" opacity="1.000000" stroke="none" 
	d="
M95.167755,42.717537 
	C94.212067,42.375137 93.527916,41.769470 92.563873,41.134621 
	C93.019867,39.690517 93.755753,38.275608 94.491638,36.860695 
	C94.975807,36.987335 95.459969,37.113976 95.944130,37.240616 
	C95.775856,38.978500 95.607574,40.716381 95.167755,42.717537 
z"/>
<path fill="#A7CB80" opacity="1.000000" stroke="none" 
	d="
M94.670227,61.705063 
	C94.065994,61.601524 93.583900,61.088188 93.069885,60.289474 
	C93.134666,58.524639 93.231392,57.045185 93.579758,55.303192 
	C94.151726,57.125523 94.472046,59.210388 94.670227,61.705063 
z"/>
<path fill="#3FAF78" opacity="1.000000" stroke="none" 
	d="
M89.377487,172.521362 
	C89.461540,174.566711 89.235260,176.820786 89.010254,179.495209 
	C84.607002,177.486145 88.703964,175.122559 89.377487,172.521362 
z"/>
<path fill="#ACCE7B" opacity="1.000000" stroke="none" 
	d="
M87.761429,51.712547 
	C86.664413,49.873138 85.541679,47.677788 84.639053,45.257553 
	C85.818001,47.140652 86.776863,49.248627 87.761429,51.712547 
z"/>
<path fill="#ACCE7B" opacity="1.000000" stroke="none" 
	d="
M84.388275,42.788895 
	C83.615440,41.257019 82.978722,39.380543 82.580078,37.273674 
	C83.386887,38.843613 83.955635,40.643955 84.388275,42.788895 
z"/>
<path fill="#9CC94D" opacity="1.000000" stroke="none" 
	d="
M74.382645,19.538517 
	C75.835045,19.115999 77.672356,18.781330 79.751663,18.714756 
	C78.251625,19.197355 76.509598,19.411858 74.382645,19.538517 
z"/>
<path fill="#A7CB80" opacity="1.000000" stroke="none" 
	d="
M94.120682,50.690239 
	C93.882111,49.031666 93.911194,47.096615 94.250000,45.026714 
	C94.502594,46.732498 94.445473,48.573132 94.120682,50.690239 
z"/>
<path fill="#A7CB80" opacity="1.000000" stroke="none" 
	d="
M96.927750,80.273964 
	C96.659103,80.014297 96.818390,79.548912 96.887115,79.313156 
	C97.986977,78.355606 99.018120,77.633820 100.317383,76.719666 
	C100.596939,78.828072 100.875755,81.355034 96.927750,80.273964 
z"/>
<path fill="#B9D69D" opacity="1.000000" stroke="none" 
	d="
M78.632660,57.170464 
	C77.727310,56.479923 76.821953,55.789383 75.916603,55.098843 
	C76.138756,54.688244 76.360901,54.277649 76.583054,53.867050 
	C77.680229,54.194641 78.777397,54.522232 79.712120,55.424393 
	C79.243996,56.389462 78.938324,56.779961 78.632660,57.170464 
z"/>
<path fill="#ACCE7B" opacity="1.000000" stroke="none" 
	d="
M80.530624,43.199852 
	C81.325531,44.477322 81.953171,46.006813 82.353256,47.753220 
	C81.538261,46.464046 80.950806,44.957958 80.530624,43.199852 
z"/>
<path fill="#86C07C" opacity="1.000000" stroke="none" 
	d="
M96.108337,96.767044 
	C95.856232,96.996628 95.403893,97.025322 95.176788,97.018768 
	C95.606216,95.391899 96.262733,93.771568 97.215637,92.044022 
	C97.128166,93.470352 96.744301,95.003906 96.108337,96.767044 
z"/>
<path fill="#ABCD82" opacity="1.000000" stroke="none" 
	d="
M72.730377,61.758381 
	C71.873009,60.810917 71.043686,59.527035 70.322792,57.881420 
	C71.206955,58.820450 71.982689,60.121204 72.730377,61.758381 
z"/>
<path fill="#9DC9A6" opacity="1.000000" stroke="none" 
	d="
M86.234711,138.166016 
	C87.190048,137.791260 88.377121,137.631393 89.780457,137.713242 
	C88.819962,138.096954 87.643204,138.238922 86.234711,138.166016 
z"/>
<path fill="#B9D69D" opacity="1.000000" stroke="none" 
	d="
M88.256332,69.175339 
	C89.128510,70.090431 89.961029,71.344414 90.712936,72.947250 
	C89.827103,72.035484 89.021889,70.774857 88.256332,69.175339 
z"/>
<path fill="#9DC9A6" opacity="1.000000" stroke="none" 
	d="
M78.094788,137.304749 
	C78.958984,137.215836 79.773315,137.360596 80.794327,137.742462 
	C80.136383,138.126328 79.271767,138.273056 78.202866,138.216919 
	C77.998566,138.014069 78.044922,137.538437 78.094788,137.304749 
z"/>
<path fill="#7EC4A0" opacity="1.000000" stroke="none" 
	d="
M75.291237,169.212036 
	C75.722328,168.925034 76.079582,168.959579 76.706619,168.991364 
	C76.711838,169.764526 76.447266,170.540436 76.182693,171.316360 
	C75.860931,170.722092 75.539169,170.127838 75.291237,169.212036 
z"/>
<path fill="#86C07C" opacity="1.000000" stroke="none" 
	d="
M95.043266,101.719177 
	C94.799026,101.004028 94.810768,100.070953 95.069962,99.032288 
	C95.311348,99.784882 95.305298,100.643066 95.043266,101.719177 
z"/>
<path fill="#9CC985" opacity="1.000000" stroke="none" 
	d="
M91.792465,86.989479 
	C92.053558,87.620140 92.003487,88.203224 91.953415,88.786316 
	C91.352425,88.290459 90.751419,87.794601 90.210236,86.953018 
	C90.673798,86.718842 91.077553,86.830376 91.792465,86.989479 
z"/>
<path fill="#9CC94D" opacity="1.000000" stroke="none" 
	d="
M63.292950,21.535511 
	C63.845882,21.109371 64.704971,20.748711 65.758499,20.596401 
	C65.168327,21.070166 64.383720,21.335579 63.292950,21.535511 
z"/>
<path fill="#4EB16D" opacity="1.000000" stroke="none" 
	d="
M110.301041,146.634766 
	C110.000473,147.386215 109.395424,148.185928 108.418365,148.993805 
	C108.696419,148.229004 109.346497,147.456009 110.301041,146.634766 
z"/>
<path fill="#5DB56B" opacity="1.000000" stroke="none" 
	d="
M171.480164,138.752838 
	C171.092667,138.431961 170.825699,137.852676 170.769135,137.139984 
	C171.186600,137.502502 171.393661,137.998459 171.480164,138.752838 
z"/>
<path fill="#3FAF78" opacity="1.000000" stroke="none" 
	d="
M106.521370,177.437439 
	C106.591736,176.771423 106.956078,175.949768 107.691444,175.076691 
	C107.646759,175.777451 107.231056,176.529617 106.521370,177.437439 
z"/>
<path fill="#86C07C" opacity="1.000000" stroke="none" 
	d="
M94.061508,105.767288 
	C93.852249,105.330681 93.873383,104.708809 94.114792,104.007141 
	C94.320679,104.478912 94.306290,105.030464 94.061508,105.767288 
z"/>
<path fill="#3FAF78" opacity="1.000000" stroke="none" 
	d="
M91.406380,167.492523 
	C91.447746,168.149094 91.218193,168.984558 90.652321,169.920959 
	C90.589149,169.238403 90.862312,168.454910 91.406380,167.492523 
z"/>
<path fill="#ABCD82" opacity="1.000000" stroke="none" 
	d="
M65.426437,55.161270 
	C65.958412,55.513073 66.388184,56.158943 66.721298,57.120003 
	C66.191177,56.775242 65.757698,56.115284 65.426437,55.161270 
z"/>
<path fill="#7EC4A0" opacity="1.000000" stroke="none" 
	d="
M77.092896,164.804413 
	C76.689095,164.372467 76.454247,163.758133 76.344940,162.810730 
	C76.734268,163.192429 76.998062,163.907227 77.092896,164.804413 
z"/>
<path fill="#9CC94D" opacity="1.000000" stroke="none" 
	d="
M85.215126,19.168419 
	C85.616394,18.929754 86.225426,18.876261 86.918480,19.041641 
	C86.475967,19.291540 85.949425,19.322565 85.215126,19.168419 
z"/>
<path fill="#9CC94D" opacity="1.000000" stroke="none" 
	d="
M68.245247,20.422169 
	C68.567261,20.061377 69.145302,19.808767 69.856743,19.762110 
	C69.493851,20.155493 68.997566,20.342922 68.245247,20.422169 
z"/>
<path fill="#A7CB80" opacity="1.000000" stroke="none" 
	d="
M96.253105,72.845306 
	C95.872978,72.454399 95.669502,71.895882 95.678955,71.181656 
	C96.071175,71.576530 96.250458,72.127121 96.253105,72.845306 
z"/>
<path fill="#97C754" opacity="1.000000" stroke="none" 
	d="
M44.336601,29.982420 
	C44.614456,29.399685 45.218613,28.763060 46.204350,28.147831 
	C45.944923,28.755663 45.303917,29.342094 44.336601,29.982420 
z"/>
<path fill="#86C07C" opacity="1.000000" stroke="none" 
	d="
M93.010117,110.755180 
	C92.803680,110.319313 92.831009,109.703407 93.071777,109.005692 
	C93.271446,109.474297 93.257668,110.024719 93.010117,110.755180 
z"/>
<path fill="#A7CB80" opacity="1.000000" stroke="none" 
	d="
M95.417389,65.860977 
	C94.994629,65.527542 94.727707,64.921967 94.654465,64.175339 
	C95.089836,64.552467 95.331535,65.070656 95.417389,65.860977 
z"/>
<path fill="#9CC94D" opacity="1.000000" stroke="none" 
	d="
M92.176270,20.253750 
	C92.606262,20.041307 93.243141,20.018528 93.947006,20.246693 
	C93.470383,20.479563 92.926765,20.461489 92.176270,20.253750 
z"/>
<path fill="#9CC94D" opacity="1.000000" stroke="none" 
	d="
M97.164543,21.268063 
	C97.608795,21.071857 98.253632,21.076340 98.957138,21.342937 
	C98.465584,21.559616 97.915359,21.514181 97.164543,21.268063 
z"/>
<path fill="#73BA68" opacity="1.000000" stroke="none" 
	d="
M11.271210,111.284966 
	C11.715817,111.533730 12.134871,112.065857 12.359316,112.764481 
	C11.858356,112.476761 11.552006,112.022545 11.271210,111.284966 
z"/>
<path fill="#A4C778" opacity="1.000000" stroke="none" 
	d="
M108.081734,55.652260 
	C108.086899,55.953442 107.653519,56.034077 107.433693,56.047596 
	C107.350922,55.548389 107.487976,55.035664 107.625031,54.522938 
	C107.775543,54.798985 107.926056,55.075027 108.081734,55.652260 
z"/>
<path fill="#8BC153" opacity="1.000000" stroke="none" 
	d="
M79.161255,57.212601 
	C78.938324,56.779961 79.243996,56.389462 79.812462,55.735683 
	C79.946793,56.066517 79.818321,56.660625 79.161255,57.212601 
z"/>
<path fill="#63B56E" opacity="1.000000" stroke="none" 
	d="
M96.389915,135.227386 
	C96.125214,135.172485 96.085403,134.986969 96.014618,134.518600 
	C96.194031,134.522751 96.404419,134.809753 96.389915,135.227386 
z"/>
</svg>